<svg xmlns="http://www.w3.org/2000/svg" width="1438" height="820" fill="none" viewBox="0 0 1438 820">
  <g clip-path="url(#a)">
    <path fill="#302B2B" d="M794.5 581 2.283 325v495h795.553L794.5 581Z"/>
    <path fill="#E2DDD3" d="M-1 240.602v84.33L794.5 581 1438 424.523l-297.12-76.212.71 43.459L792 483.5-1 240.602Z"/>
    <path fill="#302B2B" d="M791.172 389.253-1 158.294v82.313L792 483.5l-.828-94.247Zm1.652-168.799L-1 21.516V86.28l793.274 226.133.55-91.959Z"/>
    <path fill="#E2DDD3" d="M-1 86.277v72.015l792.173 230.96 348.217-78.102-274.085-64.868v47.23l-73.031 18.895L-1 86.277ZM-1 0v21.514L792.823 220.58 865 204.204-1 0Z"/>
    <path fill="#E2DDD3" d="M-1 0v21.514L792.823 220.58 865 204.204-1 0Z"/>
  </g>
  <defs>
    <clipPath id="a">
      <path fill="#fff" d="M-1 0h1439v820H-1z"/>
    </clipPath>
  </defs>
</svg>
